# xmcd CD database file
#
# Track frame offsets:
#	150
#	17047
#	33720
#
# Disc length: 671 seconds
#
# Revision: 0
# Processed by: cddbd v1.5.1PL0 Copyright (c) Steve Scherf et al.
# Submitted via: CDex 1.51
#
DISCID=1e029d03
DTITLE=Angelina - Sounds of Love 〜しあわせについて〜
DYEAR=2004
DGENRE=JPop
TTITLE0=Sounds of Love 〜しあわせについて〜
TTITLE1=Alone
TTITLE2=Sounds of Love〜しあわせについて〜 (Instrumental)
EXTD=YEAR: 2004
EXTT0=
EXTT1=
EXTT2=
PLAYORDER=
